# xmcd
#
# Track frame offsets: 
#        150
#        16692
#        31650
#        44202
#        65997
#        84610
#        103860
#        125030
#        140155
#        156162
#        179050
#        203795
#
# Disc length: 2900 seconds
#
# Revision: 0
# Processed by: cddbd v1.5.2PL0 Copyright (c) Steve Scherf et al.
# Submitted via: ExactAudioCopy v1.1
#
DISCID=b60b520c
DTITLE=莫文蔚 - 就是莫文蔚
DYEAR=1900
DGENRE=Pop-Folk
TTITLE0=愛我的請舉手
TTITLE1=今天星期幾
TTITLE2=Accessories
TTITLE3=愈夜愈美麗
TTITLE4=我的天
TTITLE5=雙城故事
TTITLE6=我想愛
TTITLE7=忽然之間
TTITLE8=是這樣嗎
TTITLE9=冷
TTITLE10=不要愛我
TTITLE11=你最愛的歌
EXTD=
EXTT0=
EXTT1=
EXTT2=
EXTT3=
EXTT4=
EXTT5=
EXTT6=
EXTT7=
EXTT8=
EXTT9=
EXTT10=
EXTT11=
PLAYORDER=
